<?xml version="1.0" encoding="UTF-8"?>
<svg id="Layer_2" data-name="Layer 2" xmlns="http://www.w3.org/2000/svg" viewBox="0 0 519.26 67.57">
  <defs>
    <style>
      .cls-1 {
        fill: #353e52;
        stroke-width: 0px;
      }
    </style>
  </defs>
  <g id="Layer_1-2" data-name="Layer 1">
    <g>
      <path class="cls-1" d="M70.6,12.93h14.95v1.21l-17.68,52.32h-13.53l-5.35-13.74-6.16-16.67-6.26,16.67-5.45,13.74h-13.33L0,14.14v-1.21h15.05l4.75,15.55,5.56,17.47,11.92-30.1h11.01l12.12,30.2,5.45-17.57,4.75-15.55Z"/>
      <path class="cls-1" d="M131.71,12.93h12.52v53.53h-12.52l-.5-5.35c-4.65,4.04-10.71,6.46-17.37,6.46-16.06,0-26.97-12.12-26.97-27.88s11.41-27.88,26.97-27.88c6.87,0,12.83,2.42,17.37,6.46l.5-5.35ZM129.89,39.7c0-8.38-5.96-14.34-14.14-14.34s-14.24,5.96-14.24,14.34,5.96,14.34,14.24,14.34,14.14-5.96,14.14-14.34Z"/>
      <path class="cls-1" d="M190.8,12.93h15.25v1.31l-21.41,52.22h-12.02l-21.41-52.22v-1.31h15.25l7.17,19.49,5.05,14.04,4.95-14.04,7.17-19.49Z"/>
      <path class="cls-1" d="M222.01,44.44c1.62,6.26,6.57,10,13.43,10,4.65,0,8.69-1.82,10.81-4.65h15.66c-3.74,10.91-14.04,17.78-26.46,17.78-16.26,0-28.18-11.72-28.18-27.88s11.92-27.88,28.18-27.88c18.08,0,30.1,13.94,27.68,32.62h-41.11ZM222.11,34.64h26.87c-1.62-5.86-6.36-9.7-13.53-9.7-6.77,0-11.62,3.74-13.33,9.7Z"/>
      <path class="cls-1" d="M268.97,39.7c0-16.26,11.62-27.88,28.18-27.88,14.24,0,24.95,8.89,27.27,22.22h-14.24c-2.02-5.35-6.87-8.69-12.83-8.69-8.28,0-13.84,5.86-13.84,14.34s5.56,14.34,13.84,14.34c6.16,0,10.71-3.43,12.83-8.79h14.34c-2.32,13.33-13.03,22.32-27.37,22.32-16.46,0-28.18-11.62-28.18-27.88Z"/>
      <path class="cls-1" d="M368.06,12.93v13.33c-2.22-.4-4.24-.71-6.16-.71-8.79,0-14.14,5.15-14.14,13.94v26.97h-14.44V12.93h13.43l.5,5.96c3.64-4.44,8.79-6.77,14.65-6.77,2.02,0,4.14.3,6.16.81Z"/>
      <path class="cls-1" d="M385.73,44.44c1.62,6.26,6.57,10,13.43,10,4.65,0,8.69-1.82,10.81-4.65h15.66c-3.74,10.91-14.04,17.78-26.46,17.78-16.26,0-28.18-11.72-28.18-27.88s11.92-27.88,28.18-27.88c18.08,0,30.1,13.94,27.68,32.62h-41.11ZM385.83,34.64h26.87c-1.62-5.86-6.36-9.7-13.53-9.7-6.77,0-11.62,3.74-13.33,9.7Z"/>
      <path class="cls-1" d="M432.7,49.59h14.44c.3,3.74,3.64,5.86,8.99,5.86,5.05,0,8.48-1.82,8.48-4.85s-2.42-4.14-10.81-5.35c-14.14-1.92-20.5-7.07-20.5-16.46,0-10.5,9.19-16.97,22.42-16.97,12.52,0,21.51,6.97,22.12,17.17h-13.94c-.5-3.33-3.43-5.15-8.38-5.15s-7.68,1.62-7.68,4.55,2.83,4.44,11.01,5.56c13.13,1.62,20.3,6.57,20.3,16.36,0,10.71-9.6,17.17-23.33,17.17s-22.63-6.87-23.13-17.88Z"/>
      <path class="cls-1" d="M519.26,54.14v12.32c-3.03.61-6.06.91-8.69.91-12.12,0-19.39-5.96-19.39-18.89v-23.23h-9.49v-12.32h9.49V1.52l14.44-1.52v12.93h12.93v12.32h-12.93v21.62c0,5.66,2.93,7.68,8.48,7.68,1.62,0,3.33-.1,5.15-.4Z"/>
    </g>
  </g>
</svg>